<?xml version="1.0" encoding="UTF-8" standalone="no"?>
<!-- Created with Inkscape (http://www.inkscape.org/) -->

<svg
   width="1024"
   height="1024"
   viewBox="0 0 1024 1024"
   version="1.1"
   id="svg1"
   xml:space="preserve"
   inkscape:version="1.4.2 (ebf0e940d0, 2025-05-08)"
   sodipodi:docname="logo.svg"
   inkscape:export-filename="logo.png"
   inkscape:export-xdpi="96"
   inkscape:export-ydpi="96"
   xmlns:inkscape="http://www.inkscape.org/namespaces/inkscape"
   xmlns:sodipodi="http://sodipodi.sourceforge.net/DTD/sodipodi-0.dtd"
   xmlns:xlink="http://www.w3.org/1999/xlink"
   xmlns="http://www.w3.org/2000/svg"
   xmlns:svg="http://www.w3.org/2000/svg"><sodipodi:namedview
     id="namedview1"
     pagecolor="#505050"
     bordercolor="#ffffff"
     borderopacity="1"
     inkscape:showpageshadow="0"
     inkscape:pageopacity="0"
     inkscape:pagecheckerboard="1"
     inkscape:deskcolor="#d1d1d1"
     inkscape:document-units="px"
     inkscape:zoom="0.60742187"
     inkscape:cx="462.61093"
     inkscape:cy="555.62701"
     inkscape:window-width="1908"
     inkscape:window-height="1027"
     inkscape:window-x="0"
     inkscape:window-y="0"
     inkscape:window-maximized="1"
     inkscape:current-layer="layer2"
     showguides="true" /><defs
     id="defs1"><linearGradient
       id="linearGradient23"
       inkscape:collect="always"><stop
         style="stop-color:#fefdff;stop-opacity:1;"
         offset="0"
         id="stop23" /><stop
         style="stop-color:#1f2b35;stop-opacity:1;"
         offset="1"
         id="stop24" /></linearGradient><linearGradient
       id="linearGradient4"
       inkscape:collect="always"><stop
         style="stop-color:#7ee79d;stop-opacity:1;"
         offset="0.25212604"
         id="stop5" /><stop
         style="stop-color:#22534e;stop-opacity:1;"
         offset="0.9051277"
         id="stop4" /></linearGradient><radialGradient
       inkscape:collect="always"
       xlink:href="#linearGradient4"
       id="radialGradient5"
       cx="200.28073"
       cy="332.16284"
       fx="200.28073"
       fy="332.16284"
       r="214.16476"
       gradientTransform="matrix(1.3248788,-0.27413346,0.24782177,1.1977152,-169.67074,-20.462804)"
       gradientUnits="userSpaceOnUse"
       spreadMethod="pad" /><linearGradient
       inkscape:collect="always"
       xlink:href="#linearGradient23"
       id="linearGradient24"
       x1="326.19983"
       y1="223.82715"
       x2="369.68869"
       y2="295.45184"
       gradientUnits="userSpaceOnUse"
       gradientTransform="translate(-22)" /></defs><g
     inkscape:groupmode="layer"
     id="layer2"
     inkscape:label="Layer 2"
     style="display:inline;opacity:1"><g
       id="g27"
       transform="matrix(2.0692424,0,0,2.0692424,-24.822774,-17.72596)"><ellipse
         style="display:inline;fill:url(#radialGradient5);fill-rule:evenodd;stroke:#000000;stroke-width:17.3275;stroke-dasharray:none;paint-order:markers stroke fill"
         id="path4"
         cx="67.580063"
         cy="340.18365"
         transform="rotate(-31.193313)"
         rx="205.50101"
         ry="205.5007"
         inkscape:transform-center-x="-96.273312"
         inkscape:transform-center-y="-81.655949"
         inkscape:label="button" /><path
         style="fill:#757c7e;fill-opacity:1;stroke:#000000;stroke-width:1px;stroke-linecap:butt;stroke-linejoin:miter;stroke-opacity:1"
         d="m 170.01125,451.88344 6.25643,-19.39309 20.59808,-11.02652 45.65594,-1.01045 4.5611,0.62379 -25.43007,-45.80225 -5.64389,-36.39711 9.59888,-23.65836 21.7926,-9.68247 15.24196,-0.63344 14.17685,5.67122 0.48794,-5.81592 -5.74598,-13.47749 -7.76366,10.11415 -19.63505,2.53055 -16,6.71543 -9.86334,17.32476 -3.28939,22.418 6.23633,28.63746 -0.291,7.47589 -19.28778,18.40755 -19.17202,20.23554 -9.20418,11.97266 -7.20579,16.77332 -20.59646,-8.42444 48.66238,-120.27733 26.37379,-100.54421 20.30386,2.7926 16.64952,-9.24759 7.59405,-19.95418 4.42443,-4.50563 26.7484,14.94454 33.42202,32.75643 22.18891,45.96222 6.65916,51.62058 -3.00562,53.92283 -5.16158,24.51447 -1.97106,16.03858 -47.30547,22.73473 -53.79019,9.33601 -43.30868,-1.31752 -32.61656,-6.40434 z"
         id="path15"
         inkscape:label="body-fill" /><path
         style="fill:#fefdff;fill-opacity:1;stroke:none;stroke-width:1px;stroke-linecap:butt;stroke-linejoin:miter;stroke-opacity:1"
         d="m 155.53553,447.86802 c 0.36814,0.14005 8.51249,-27.13664 23.8738,-51.99588 14.5764,-23.58902 24.06375,-54.63661 25.54807,-59.49792 4.73428,-15.50528 11.5695,-61.98325 32.95095,-81.14448 21.38146,-19.16123 53.21604,-18.46265 53.21604,-18.46265 0,0 -23.8586,-14.62699 -49.10868,-4.04313 -25.25008,10.58387 -25.02328,22.31877 -25.02328,22.31877 l -12.93596,44.04525 -19.80979,63.22864 -19.75864,44.31469 -13.84656,30.26462 -1.04815,8.71151 z"
         id="path22"
         sodipodi:nodetypes="sssscsccccccs"
         inkscape:label="body-highlight-front" /><path
         style="fill:url(#linearGradient24);stroke:none;stroke-width:1px;stroke-linecap:butt;stroke-linejoin:miter;stroke-opacity:1"
         d="m 294.73268,212.48559 3.14219,10.18768 c 0,0 27.49166,23.33304 39.3854,62.89328 13.54639,45.0572 -8.72223,80.96773 -9.60449,80.14294 4.76877,9.30875 7.58621,18.93397 6.62088,29.1727 8.57616,-13.91983 15.96538,-29.69968 20.58965,-49.81238 0,0 2.97053,-41.76363 -8.29486,-65.25163 -11.26539,-23.48799 -21.06599,-42.18824 -35.46391,-55.22083 -14.39792,-13.0326 -16.37486,-12.11176 -16.37486,-12.11176 z"
         id="path23"
         sodipodi:nodetypes="ccscccssc"
         inkscape:label="back-highlight" /><path
         style="fill:#364048;fill-opacity:1;stroke:none;stroke-width:1px;stroke-linecap:butt;stroke-linejoin:miter;stroke-opacity:1"
         d="m 217.08481,255.15113 c 0,0 6.06149,-29.52653 66.26808,-22.86415 60.2066,6.66238 -10.89549,-34.17283 -10.89549,-34.17283 l -5.42123,2.85008 -12.71704,21.51728 -15.18328,8.36254 -16.99397,-2.31993 z"
         id="path21"
         inkscape:label="head-shadow" /><path
         id="path1"
         style="fill:none;fill-opacity:1;stroke:#000000;stroke-width:8;stroke-linecap:butt;stroke-linejoin:bevel;stroke-dasharray:none;stroke-opacity:1;paint-order:normal"
         inkscape:label="body"
         d="m 165.55785,456.00373 c 0,0 6.52932,-33.00722 33.33344,-35.62306 26.80412,-2.61584 49.11209,0.77986 49.11209,0.77986 l 16.14239,11.51749 -16.11397,-11.42654 c 0,0 -63.43384,-76.81658 -15.24713,-111.43412 48.18671,-34.61754 106.08989,64.97765 98.2833,84.76982 m -149.55076,33.31091 42.88206,-46.14651 c -0.92361,1.49185 -13.46887,-27.33587 -8.09836,-46.20795 2.00646,-7.05072 3.31959,-14.34573 12.83495,-23.28793 13.40188,-12.59462 34.7233,-7.58143 33.176,-8.58044 2.95739,-6.49853 7.59364,-16.06242 7.59364,-16.06242 l 9.04119,23.60282 m -118.90328,99.3599 c 27.02859,-56.99724 35.36295,-92.78903 42.04564,-117.22465 6.68269,-24.43563 12.16737,-36.39814 16.47925,-58.27211 2.51243,-12.74547 0.24256,-8.31751 6.84511,-8.35969 6.60254,-0.0422 18.44241,1.56364 22.57127,-2.53047 7.95906,-7.89208 21.98179,-30.96174 21.98179,-30.96174 0,0 57.11713,22.51104 79.06729,89.28114 21.95016,66.7701 -1.61575,150.02572 -1.61575,150.02572 -27.32846,18.19592 -52.48923,26.42721 -76.51769,29.45338 -32.82545,6.40405 -58.60197,0.0822 -86.40835,-2.34647 -12.24704,-3.42894 -26.05483,-7.71783 -38.52493,-12.19613 2.19508,-11.10425 9.30046,-28.82492 14.07637,-36.86898 z"
         sodipodi:nodetypes="cscccscccssccccsssscsccccc" /><path
         id="path11"
         style="display:inline;fill:#ffffff;fill-opacity:1;stroke:#000000;stroke-width:8;stroke-linecap:butt;stroke-linejoin:miter;stroke-dasharray:none;stroke-opacity:1"
         d="m 166.17655,172.15321 c -43.19268,4.92408 -61.98325,-77.118969 -3.94024,-62.62669 m 132.62483,63.7351 c 43.19268,4.92408 60.09612,-77.828353 2.05311,-63.33607 m -125.52788,66.83434 c 0,0 -14.88242,-37.18237 13.71298,-50.76277 33.94539,-16.12119 44.85922,17.52647 44.85922,17.52647 0,0 9.4096,-31.77946 43.42227,-18.60418 32.00965,12.39938 10.1699,58.586 12.74497,56.01604 m -89.99815,14.67393 c -10.93639,-5.14011 -43.92331,-22.16936 -35.13934,-72.54097 9.87789,-56.644709 109.11965,-85.294047 138.3019,-1.22777 10.87945,42.42868 -15.92469,68.75686 -33.85927,72.20674 -10.79431,55.12382 -64.15903,33.38913 -69.30329,1.562 z"
         inkscape:label="head" /><path
         style="opacity:1;fill:#9fa4a0;fill-opacity:1;stroke:none;stroke-width:1px;stroke-linecap:butt;stroke-linejoin:miter;stroke-opacity:1"
         d="m 164.89621,144.41434 c 5.80402,-32.22477 31.28429,-56.938154 65.40108,-60.752353 38.39497,-4.292493 67.56867,42.433133 66.3215,44.160393 0.92492,7.13256 1.99831,14.12521 0.40898,23.62697 l -2.28457,8.57801 c 0.76207,-5.57813 -6.5e-4,-11.11394 -0.61738,-16.65381 -2.49796,-6.19021 -1.03258,-9.97081 -13.59053,-19.34375 -6.79115,-4.00359 -13.914,-5.88715 -21.26635,-6.304 -8.08302,-0.17501 -13.01369,1.88944 -17.46934,4.29136 -5.07532,3.17921 -8.80185,7.49291 -11.92076,12.31769 -2.35535,-4.82032 -6.22212,-7.86499 -9.92717,-11.09965 -4.88238,-2.82937 -9.91056,-5.45119 -16.83827,-5.36919 -15.97825,-0.34397 -25.63032,7.64238 -30.98629,12.82685 -2.30899,2.40735 -6.50554,9.36009 -7.2309,13.72148 z"
         id="path19"
         sodipodi:nodetypes="cscccccccccccc"
         inkscape:label="forehead-l" /><path
         style="display:inline;opacity:0.351273;mix-blend-mode:darken;fill:#131313;fill-opacity:1;stroke:none;stroke-width:1px;stroke-linecap:butt;stroke-linejoin:miter;stroke-opacity:1"
         d="m 230.127,83.661114 -0.20226,50.796716 c 4.74073,-7.59858 11.05852,-13.33234 20.09178,-15.8551 9.72979,-1.78769 19.8089,-0.22745 30.31237,5.39966 5.22737,3.79924 10.2328,7.88617 12.56384,15.43974 1.44245,6.68679 2.67755,13.41161 1.86553,20.51185 1.66737,-5.21013 3.17377,-10.66974 3.26308,-18.3256 -0.0302,-4.95742 -0.36136,-9.81211 -1.2393,-14.48018 C 277.78733,93.816733 252.88529,82.169705 230.127,83.661114 Z"
         id="path20"
         sodipodi:nodetypes="ccccccccc"
         inkscape:label="forehead-r" /><path
         style="fill:#8e9494;fill-opacity:1;stroke:#000000;stroke-width:1px;stroke-linecap:butt;stroke-linejoin:miter;stroke-opacity:1"
         d="m 357.00965,387.46945 -6.66078,41.61656 39.55467,-31.88906 15.19212,-21.74357 12.85129,-36.99357 -3.08843,-40.69293 -13.28055,-43.97106 -2.59807,-36.29743 6.45579,-17.7918 17.10772,-12.40112 15.61991,-2.33234 c 14.65612,0.89961 14.76404,4.93025 16.95777,8.53081 11.78431,19.34153 2.13747,25.75429 -3.42743,28.77719 -5.00809,2.72043 -10.09717,0.844 -13.17079,-11.90474 l -8.82271,4.53438 -5.89469,12.5 8.1262,17.09405 14.19454,8.54502 23.959,-3.28939 17.44855,-10.89791 8.63425,-21.56672 -3.16238,-25.62138 -13.27894,-21.53457 -16.01045,-13.38585 -19.52331,-6.43328 -24.36013,1.25643 -16.98875,4.61817 -20.77492,12.18087 -15.79341,31.97749 -3.0836,27.4799 4.99839,32.77894 10.10049,27.59003 5.44292,26.13023 -2.84807,27.48151 -9.92283,24.50643 -7.75804,10.5217 z"
         id="path16"
         inkscape:label="tail-fill"
         sodipodi:nodetypes="cccccccccccsscccccccccccccccccccccccc" /><path
         style="fill:#fdfefe;fill-opacity:1;stroke:none;stroke-width:1px;stroke-linecap:butt;stroke-linejoin:miter;stroke-opacity:1"
         d="m 360.12299,387.65354 -2.50241,8.34083 c 0,0 27.20981,-11.19935 34.65273,-44.58923 7.44293,-33.38987 -8.63907,-78.46704 -10.8336,-87.89389 -2.19453,-9.42684 -17.48553,-57.5008 11.49035,-81.41077 28.97589,-23.90997 57.93891,-17.77009 67.69293,-11.48392 9.75402,6.28617 18.11656,11.88826 18.11656,11.88826 0,0 -15.34646,-26.02009 -44.72588,-27.6889 -29.37943,-1.66881 -46.0619,15.90755 -48.80145,19.63665 -2.73955,3.7291 -23.72187,22.45257 -18.30145,59.27653 5.42042,36.82395 14.48875,41.73633 18.21222,61.64871 3.72347,19.91238 6.22106,42.56753 -4.78778,66.88505 -11.00884,24.31753 -20.21222,25.39068 -20.21222,25.39068 z"
         id="path26"
         inkscape:label="tail-highlight" /><path
         style="fill:#cdd6d6;fill-opacity:1;stroke:none;stroke-width:1px;stroke-linecap:butt;stroke-linejoin:miter;stroke-opacity:1"
         d="m 436.03416,214.82034 c -0.25801,-0.22576 -12.29551,5.52328 -7.68311,17.78542 4.00793,10.65514 10.61267,11.66015 10.23442,11.99888 -6.25898,-3.09917 -3.19734,-8.93473 -3.47614,-13.66493 0.69473,-0.6496 11.38517,9.32502 25.01386,-1.7309 16.59362,-13.46116 2.07682,-32.22686 2.15012,-32.15133 0.0445,0.0331 5.53111,13.83252 -1.29461,23.30104 -6.78279,9.40897 -22.83546,6.26133 -23.67645,6.27652 -0.30365,-4.07554 -0.6757,-7.85092 -1.26809,-11.8147 z"
         id="path27"
         sodipodi:nodetypes="csccscscc"
         inkscape:label="tail-end-highlight" /><path
         style="fill:none;stroke:#000000;stroke-width:8;stroke-linecap:butt;stroke-linejoin:miter;stroke-dasharray:none;stroke-opacity:1"
         d="m 356.7871,384.26076 c 0,0 44.85547,-43.55579 19.7301,-101.18613 -26.15217,-59.98554 -15.28364,-117.03414 39.25352,-131.0353 73.53144,-18.87751 99.864,70.28136 62.06851,93.05275 -28.55808,17.20595 -48.26377,1.6208 -53.17286,-10.54875 -3.99929,-9.91417 0.89187,-21.9971 13.3299,-24.50153 2.15816,-1.66806 2.89948,12.81393 2.89948,12.81393 0,0 28.08077,1.32554 17.32411,-24.50318 -10.75666,-25.82873 -41.85628,-10.22566 -47.01526,-4.96709 -3.23331,3.29573 -26.2174,16.55807 -0.0585,93.40887 23.60653,69.35231 -28.52414,117.68325 -28.52414,117.68325 l -31.52537,24.22694"
         id="path3"
         sodipodi:nodetypes="cssssccssscc"
         inkscape:label="tail" /><g
         id="g14"
         inkscape:label="l-eye"
         transform="translate(-22)"><ellipse
           style="display:inline;fill:#000000;fill-opacity:1;fill-rule:evenodd;stroke:#000000;stroke-width:8;stroke-linecap:butt;stroke-linejoin:round;stroke-dasharray:none;paint-order:normal"
           id="path8-5"
           cx="225.34915"
           cy="157.85629"
           rx="10.167218"
           ry="10.472456" /><ellipse
           style="fill:#ffffff;fill-opacity:1;fill-rule:evenodd;stroke:none;stroke-width:8.75645;stroke-linecap:butt;stroke-linejoin:round;stroke-dasharray:none;paint-order:normal"
           id="path9"
           cx="220.67473"
           cy="152.45258"
           rx="5.1299348"
           ry="4.9685049" /></g><g
         id="g13"
         inkscape:label="r-eye"
         transform="translate(-22)"><ellipse
           style="display:inline;fill:#000000;fill-opacity:1;fill-rule:evenodd;stroke:#000000;stroke-width:8;stroke-linecap:butt;stroke-linejoin:round;stroke-dasharray:none;paint-order:normal"
           id="path8"
           cx="279.72702"
           cy="158.55203"
           rx="10.167218"
           ry="10.472456" /><ellipse
           style="display:inline;opacity:1;fill:#ffffff;fill-opacity:1;fill-rule:evenodd;stroke:none;stroke-width:8.75645;stroke-linecap:butt;stroke-linejoin:round;stroke-dasharray:none;paint-order:normal"
           id="path9-0"
           cx="278.36618"
           cy="152.56598"
           rx="5.1299348"
           ry="4.9685049" /></g><path
         style="fill:#000000;fill-opacity:1;stroke:#000000;stroke-width:1px;stroke-linecap:butt;stroke-linejoin:miter;stroke-opacity:1"
         d="m 217.90246,184.16039 c -1.1412,1.16335 0.61384,8.78901 5.45109,9.85061 5.12947,1.12573 1.76989,-8.21488 1.76322,-8.16697 -2.28849,-2.72324 -4.69467,-3.25834 -7.21431,-1.68364 z"
         id="path12"
         sodipodi:nodetypes="cscc"
         inkscape:label="l-nostril" /><path
         style="display:inline;fill:#000000;fill-opacity:1;stroke:#000000;stroke-width:1px;stroke-linecap:butt;stroke-linejoin:miter;stroke-opacity:1"
         d="m 243.51109,183.86453 c 1.1412,1.16335 -0.61384,8.78901 -5.45109,9.85061 -5.12947,1.12573 -1.76989,-8.21488 -1.76322,-8.16697 2.28849,-2.72324 4.69467,-3.25834 7.21431,-1.68364 z"
         id="path13"
         sodipodi:nodetypes="cscc"
         inkscape:label="r-nostril" /><path
         style="fill:#000000;fill-opacity:1;stroke:#000000;stroke-width:1px;stroke-linecap:butt;stroke-linejoin:miter;stroke-opacity:1"
         d="m 156.2,124.2689 c 0.38409,0.41561 -12.0099,-4.95175 -14.922,8.96616 -2.53613,12.12103 15.73531,25.98431 20.29579,35.34511 5.93955,12.19148 -3.83566,-24.98406 -3.83566,-24.98406 l 2.85344,-15.88262 z"
         id="path17"
         sodipodi:nodetypes="cssccc"
         inkscape:label="ear-inner-left" /><path
         style="fill:#000000;fill-opacity:1;stroke:#000000;stroke-width:1px;stroke-linecap:butt;stroke-linejoin:miter;stroke-opacity:1"
         d="m 304.19562,123.88305 c -0.38409,0.41561 12.0099,-4.95175 14.922,8.96616 2.53613,12.12103 -15.73531,25.98431 -20.29579,35.34511 -5.93955,12.19148 3.83566,-24.98406 3.83566,-24.98406 l -2.85344,-15.88262 z"
         id="path18"
         sodipodi:nodetypes="cssccc"
         inkscape:label="ear-inner-right" /><path
         style="fill:#fffeff;fill-opacity:1;stroke:none;stroke-width:1px;stroke-linecap:butt;stroke-linejoin:miter;stroke-opacity:1"
         d="m 170.89918,452.23771 c 0,0 7.30247,-25.09732 27.38505,-27.80483 21.74893,-2.93216 48.17279,0.74918 48.17279,0.74918 6.24189,2.96475 12.42524,5.99917 16.9336,11.02694 0,0 -48.3416,-7.2882 -63.50631,0.71592 -15.16471,8.00412 -17.38124,17.76492 -17.38124,17.76492 z"
         id="path24"
         sodipodi:nodetypes="csccscc" /><path
         style="fill:#fdfefe;fill-opacity:1;stroke:none;stroke-width:1px;stroke-linecap:butt;stroke-linejoin:miter;stroke-opacity:1"
         d="m 267.07331,430.63634 c -3.01892,5.44673 -29.37187,-23.04037 -36.63331,-43.09111 -2.67454,-7.38511 -7.98773,-18.23392 -9.98443,-29.48934 -1.78077,-10.03826 -3.59001,-22.48964 2.07359,-32.10274 11.89433,-20.18881 28.54843,-19.93583 38.64247,-18.18466 10.00622,1.73594 29.66519,10.84594 49.18006,39.58319 18.51443,27.26403 15.16559,47.46303 15.16559,47.46303 -0.52804,-0.0593 -6.17027,-38.16717 -38.84646,-61.98633 -23.23224,-16.93503 -36.86105,-10.95336 -46.88706,-2.99156 -10.76584,8.54931 -12.23834,39.19855 -2.5217,58.51447 9.71664,19.31591 30.23997,41.14709 29.81125,42.28505 z"
         id="path25"
         sodipodi:nodetypes="cssssscsssc"
         inkscape:label="leg-highlight" /></g></g></svg>
